<svg xmlns="http://www.w3.org/2000/svg" width={686} height={686} {...props}>
    <path
      d="m347.063 37.75 2.527-.002C413.836 37.83 474.521 59.439 525 99l2.781 2.137c5.727 4.467 11.055 9.297 16.36 14.25a124 124 0 0 0 6.218 5.32L553 123v2h2v2h2c1.305 1.258 1.305 1.258 2.875 3.125 2.236 2.647 4.478 5.28 6.797 7.855 16.827 18.867 30.74 41.083 41.328 64.02l1.101 2.37c15.087 32.811 21.735 66.26 22.79 102.155.16 5.119.374 10.234.609 15.35l.108 2.553c.151 3.246.356 6.36.904 9.568 8.625 53.063-13.033 121.523-43.13 164.305-3.647 5.02-7.479 9.878-11.382 14.699l-1.353 1.703C566.37 528.881 553.328 541.923 539 553q-1.74 1.42-3.473 2.848C527.032 562.822 518.281 569.117 509 575l-2.04 1.307C472.09 598.555 435.062 612.507 394 618l-2.6.355C319.03 627.818 241.235 608.072 183 564q-1.675-1.245-3.352-2.488c-6.348-4.755-12.341-9.802-18.156-15.203a234 234 0 0 0-6.68-5.934c-3.499-3.033-6.739-6.277-9.98-9.582-1.953-1.974-1.953-1.974-4.832-4.168L138 525v-2h-2a128 128 0 0 1-5.125-6.312l-1.478-1.918A1330 1330 0 0 1 125 509l-1.281-1.662a530 530 0 0 1-3.344-4.4l-1.914-2.536C117 498 117 498 116.6 495.316L116 493a1655 1655 0 0 0-5-2 57 57 0 0 1-4.312-6.25c-.387-.626-.773-1.252-1.17-1.898A530 530 0 0 1 102 477l-2.043-3.371c-35.742-60.57-47.803-141.771-30.39-210.254q.71-2.688 1.433-5.375l.75-2.867C86.74 198.373 119.254 146.19 164 108l2.762-2.426C175.732 97.756 185.26 90.824 195 84l1.93-1.372C215.153 69.703 235.13 60.781 256 53l2.226-.835c28.26-10.459 58.854-14.393 88.837-14.415M369 56v3l2.297.364c56.072 8.988 111.432 28.131 153.125 68.126q1.544 1.478 3.105 2.938C545.42 147.17 559.469 168.49 571 190l.982 1.832C585.242 216.799 593.88 242.437 593 271l-7 1-.812-2.625c-1.16-3.293-2.57-6.286-4.188-9.375h-1v10h-7l-.345-3.107c-.633-3.765-1.614-6.687-3.132-10.174l-1.522-3.528-1.626-3.691-1.662-3.814A1787 1787 0 0 0 560 235l-1.09-2.461A346 346 0 0 0 553 220l-1.067-2.162C540.698 195.263 526.373 175.235 509 157l-2.176-2.3c-2.327-2.442-2.327-2.442-4.824-4.7h-2v-2a109 109 0 0 0-6.312-4.875l-2.027-1.467c-52.966-37.838-112.364-53.37-177.087-42.623C278.73 105.351 245.071 118.866 216 141l-2.922 2.219C197.545 155.375 183.73 169.167 172 185l-1.268 1.69c-7.248 9.69-13.625 19.87-19.732 30.31l-1.117 1.893C136.614 241.614 126.552 269.399 127 296h1q.507-2.593 1-5.187l.563-2.918c.406-2.688.516-5.183.437-7.895h3l.5-1.778c4.15-14.595 9.095-28.467 15.5-42.222l1.184-2.566c7.422-15.94 16.5-30.93 27.816-44.434l1.312-1.576C213.714 146.197 261.03 118.48 314 109l2.32-.416c3.883-.67 7.761-1.183 11.68-1.584l2.875-.332C373.419 102.513 414.773 111.491 453 130l2.037.971C470.24 138.298 483.76 148.446 496 160q2.025 1.725 4.063 3.438c7.28 6.37 13.26 13.633 18.527 21.726L520 187h2c1.532 2.962 2.833 5.963 4.063 9.063l1.035 2.597c.68 1.763 1.304 3.547 1.902 5.34-6.026-.268-10.312-.857-15-5-1.041-1.704-2.082-3.412-3.004-5.184-1.664-3.033-3.574-5.334-5.996-7.816h-4l-.219-2.219c-4.207-14.977-35.363-30.99-48.508-38.527C432.826 134.446 411.838 127.156 390 123l-2.465-.492c-26.047-4.977-57.635-5.587-83.535.492l-2.5.57c-31.644 7.478-60.234 23.693-84.605 44.946-3.35 2.875-6.826 5.532-10.383 8.144L205 178v2l-3 1c-1.58 1.52-1.58 1.52-3.125 3.438-1.924 2.285-3.842 4.527-5.91 6.683C158.564 227.145 144.61 280.395 145 329c1.406 47.355 16.466 98.6 49.707 133.586 2.736 2.88 5.282 5.898 7.82 8.953 1.52 1.723 1.52 1.723 4.473 2.461q1.041 1.98 2 4c2.438 2.579 5.26 4.75 8 7l1.6 1.33c19.483 16.155 41.278 30.52 65.4 38.67l2.19.756c49.883 16.938 108.652 14.544 156.177-8.32C455.88 510.732 468.16 502.316 480 493l1.573-1.229c4.826-3.754 4.826-3.754 9.427-7.771v-2l1.7-.71c8.241-4.619 15.016-13.948 20.898-21.282 3.244-3.943 6.523-6.947 10.715-9.883C541.132 438.289 552.38 419.67 558 400h8c-.394 8.907-1.271 15.808-5.445 23.75-1.378 2.88-2.423 5.718-3.392 8.755C551.72 449.398 543.014 465.113 532 479l-1.231 1.573C514.325 501.388 494.37 517.933 472 532l-3.238 2.043C440.095 551.243 406.94 560.555 374 565l-2.134.29C317.836 571.66 263.998 557.146 218 529l-1.862-1.132C207.75 522.706 200.34 516.525 193 510l-1.678-1.486c-39.4-35.098-64.102-82.393-75.697-133.514l-.724-3.177c-3.513-16.324-4.342-32.75-5.026-49.385l-.262-5.983q-.315-7.227-.613-14.455h-2c-.591 35.6 1.721 70.758 12 105l.76 2.535c3.254 10.562 7.495 20.552 12.24 30.527l1.473 3.1c3.389 6.938 7.273 13.4 11.527 19.838.675 1.058 1.35 2.117 2.047 3.207C155.522 479.173 165.27 490.857 176 502l1.52 1.587c6.755 7.015 13.728 13.493 21.48 19.413l1.896 1.456c52.795 40.235 120.07 59.684 186.13 51.022C432.183 568.812 472.31 550.144 508 522l1.74-1.358c4.752-3.679 4.752-3.679 9.26-7.642v-2l1.766-.781c2.414-1.317 4.051-2.77 5.984-4.719l1.86-1.844c1.604-1.55 1.604-1.55 1.39-3.656l3-1c3.26-3.44 6.093-7.26 9-11l1.397-1.78c21.795-27.884 36.184-58.553 48.728-91.47l1.184-3.085 1.074-2.868.95-2.52c.855-2.521.855-2.521.667-6.277l7 1c-.85 25.843-.85 25.843-5.371 34.68-2.32 4.727-3.735 9.681-5.317 14.695-3.058 9.411-6.538 18.194-11.33 26.849a307 307 0 0 0-2.841 5.3C570.269 476.997 559.773 489.61 549 502l-2.066 2.406c-2.534 2.934-5.08 5.779-7.871 8.469-2.295 1.87-2.295 1.87-2.063 4.125l-1.785.781c-2.4 1.32-3.803 2.709-5.653 4.719-4.799 4.905-10.13 8.999-15.633 13.071a740 740 0 0 0-4.018 2.998C487.266 555.56 462.603 567.442 436 577l-2.57.924Q426.227 580.5 419 583v2c12.39.62 22.928-3.476 34.063-8.562l3.57-1.614c20.966-9.57 41.232-20.512 59.367-34.824l2.344-1.797A552 552 0 0 0 525 533l3-2.363 3.063-2.45 2.847-2.269L536 524v-2l1.637-.648c3.213-1.838 5.613-4.348 8.176-6.977l1.625-1.651c4.02-4.111 7.898-8.29 11.562-12.724l1.231-1.46c38.223-45.474 53.358-94.472 62.316-151.978l.4-2.56c.771-4.992 1.45-9.987 2.053-15.002l-1.875-.937c-4.85-4.707-4.365-13.13-4.706-19.523-1.695-31.744-9.58-62.527-22.419-91.54l-1.172-2.656C580.825 182.977 561.408 156.87 538 132l-2.187-2.336c-1.648-1.89-1.648-1.89-3.813-1.664v-2c-1.964-1.865-1.964-1.865-4.562-3.875l-3.051-2.434-1.663-1.316a431 431 0 0 1-5.267-4.285C501.74 101.2 484.696 90.965 467 81l-2.09-1.177C435.146 63.336 402.3 58.915 369 56M111 276v10h2v-10zm-2 12v14h2v-14zm296 298v2h10v-2zm-12 2v2h12v-2zm-74 2v2h10v-2zm58 0v2h16v-2zm-36 2v2h34v-2z"
      fill="#6B04A2"
    />
    <path
      d="M460.922 175.758c14.987-.597 29.526 2.31 41.015 12.43Q504.48 190.58 507 193l2.496 2.27c7.072 6.63 11.097 13.493 11.65 23.314q.037 4.426.042 8.853l.037 3.104c.02 10.834-3.438 19.044-10.772 27.174C504.7 262.804 497.6 265.193 490 265c-6.668-1.039-12.734-2.58-17-8-.474-3.394-.357-6.599 0-10 3.692-1.368 5.641-.582 9.188.938 6.154 2.366 11.345 3.372 17.625 1 4.133-3.661 5.995-7.44 6.683-12.813q.008-2.062-.058-4.125l-.038-2.22c-.297-9.4-1.427-19.646-6.4-27.78-10.34-8.73-22.16-11.177-35.312-11.187l-2.436-.038c-11.065-.026-19.704 2.66-28.229 9.905-19.655 20.175-16.238 60.139-16.613 85.965l-.111 6.506c-.47 28.547-.632 57.099-.816 85.649q-.077 11.69-.16 23.379-.168 23.91-.323 47.821c-8.704.082-8.704.082-12-2-4.599-6.074-7.683-13.25-11-20.062-4.182-8.482-8.52-16.812-13.25-25-5.387-9.334-10.359-18.84-15.25-28.438-5.296-10.387-10.734-20.64-16.545-30.75-4.672-8.163-9.114-16.44-13.517-24.75l-1.104-2.081q-6.15-11.61-12.183-23.279a658 658 0 0 0-14.63-26.764A996 996 0 0 1 295.375 247l-1.543-2.807-1.434-2.63-1.26-2.31c-1.197-2.37-2.165-4.783-3.138-7.253l.006 2.155q.066 26.058.098 52.117.014 12.601.047 25.204.03 10.995.037 21.99.003 5.813.023 11.624c.113 30.962.113 30.962-2.211 44.91l-.407 2.597c-1.918 11.14-6.035 20.636-11.593 30.403l-1.395 2.543c-5.866 9.73-14.916 19.758-26.07 22.844L244 449l-2.562 1.059C228.833 453.51 211.852 452.59 200 447l-2.945-1.332c-6.394-3.297-11.458-7.605-16.555-12.606l-1.781-1.735c-9.837-10.078-11.203-21.86-11.223-35.427.221-9.766 3.31-16.773 10.004-23.9 7.535-6.835 13.67-8.38 23.82-8.219 4.477.266 6.88.906 10.68 3.219l2.938 1.625c2.743 3.16 2.51 5.291 2.335 9.352C217 380 217 380 216 382c-3.383-.619-6.553-1.473-9.812-2.562-5.945-1.782-11.135-2.676-17 0-3.442 2.286-4.711 4.737-5.75 8.687-1.903 12.503-.838 25.14 5.812 36.188 5.791 6.976 17.713 12.148 26.566 13.503L218 438l2.715.277c12.465.672 23.088-4.115 32.668-11.84 4.026-3.749 6.892-7.676 9.617-12.437l1.906-3.254c7.403-13.577 7.399-27.641 7.505-42.767q.029-2.649.06-5.297.078-7.124.136-14.247c.044-4.98.098-9.959.152-14.938q.149-14.115.276-28.229c.099-10.72.209-21.441.32-32.162q.338-33.052.645-66.106-7.604.247-15.204.58-2.578.106-5.158.188c-14.506.412-14.506.412-27.638 6.232-4.32 5.063-7.033 12.024-6.527 18.758 1.037 4.412 2.793 8.616 5.527 12.242 3.27 1.408 6.915 1.235 10.438 1.313l3.37.113c3.89-.52 5.419-1.706 8.192-4.426a57 57 0 0 0 2.25-3.312C252 236 252 236 254.316 235.84c2.277.26 4.457.626 6.684 1.16.218 5.553.292 9.408-3.492 13.688-7.256 6.985-15.64 10.536-25.695 10.937-8.112-.33-13.538-2.925-19.063-8.812-6.827-8.887-9.08-16.558-7.75-27.813 1.896-8.995 5.352-14.998 12.25-20.937C219 203 219 203 221 203v-2c18.44-8.082 38.094-7.282 57.894-7.405q3.933-.033 7.864-.103c3.816-.066 7.632-.094 11.449-.113l3.53-.084c6.578.016 10.635.732 15.717 5.034 2.78 3.006 4.5 6.367 6.233 10.046q1.263 2.528 2.532 5.055l1.344 2.714c2.604 5.174 5.368 10.262 8.125 15.356l1.582 2.962c3.168 5.874 6.584 11.508 10.205 17.113 1.751 2.785 3.206 5.628 4.587 8.613 4.79 9.803 10.456 19.1 15.993 28.495 3.975 6.778 7.88 13.598 11.795 20.412 2.59 4.5 5.19 8.985 7.9 13.413 5.037 8.328 9.591 16.948 14.25 25.492l.031-3.027q.149-14.294.308-28.586.083-7.344.158-14.688c.386-37.52.386-37.52.964-51.855l.108-2.735c.81-17.473 5.052-34.173 14.431-49.109l1.875-3.187c4.64-6.142 10.439-9.907 17.375-13.063l2.275-1.041c7.207-3.191 13.54-4.466 21.397-4.951"
      fill="#6A04A1"
    />
    <path
      d="m166 106 2 1-34 34-2-1 1.285-1.25c3.138-3.09 6.164-6.215 9.028-9.562 6.167-7.135 12.92-13.697 20.093-19.813A67 67 0 0 0 166 106m43 50 2 1-27 27-2-1c8.451-9.615 17.57-18.354 27-27"
      fill="#48036D"
    />
    <path
      d="m522 451 2 1-13 13-2-1q2.4-2.692 4.813-5.375l1.369-1.54c2.17-2.407 4.104-4.276 6.818-6.085"
      fill="#49036E"
    />
  </svg>